<svg xmlns="http://www.w3.org/2000/svg" viewBox="0 0 1280 720" width="1280" height="720" role="img" aria-label="">
  <defs>
    <linearGradient id="sky" x1="0" y1="0" x2="1" y2="1">
      <stop offset="0%" stop-color="#161d2b"/>
      <stop offset="100%" stop-color="#0c0e13"/>
    </linearGradient>
    <radialGradient id="beam" cx="14%" cy="10%" r="70%">
      <stop offset="0%" stop-color="#e6b24a" stop-opacity="0.18"/>
      <stop offset="55%" stop-color="#e6b24a" stop-opacity="0.04"/>
      <stop offset="100%" stop-color="#e6b24a" stop-opacity="0"/>
    </radialGradient>
  </defs>

  <rect width="1280" height="720" fill="url(#sky)"/>
  <rect width="1280" height="720" fill="url(#beam)"/>

  <!-- faint diagonal film strip, low contrast so overlaid text stays readable -->
  <g transform="rotate(-28 640 360)" opacity="0.10">
    <rect x="-200" y="300" width="1700" height="120" fill="#f4d27e"/>
    <rect x="-200" y="300" width="1700" height="18" fill="#0c0e13"/>
    <rect x="-200" y="402" width="1700" height="18" fill="#0c0e13"/>
    <g fill="#0c0e13">
      <rect x="-180" y="326" width="34" height="24" rx="4"/>
      <rect x="-100" y="326" width="34" height="24" rx="4"/>
      <rect x="-20" y="326" width="34" height="24" rx="4"/>
      <rect x="60" y="326" width="34" height="24" rx="4"/>
      <rect x="140" y="326" width="34" height="24" rx="4"/>
      <rect x="220" y="326" width="34" height="24" rx="4"/>
      <rect x="300" y="326" width="34" height="24" rx="4"/>
      <rect x="380" y="326" width="34" height="24" rx="4"/>
      <rect x="460" y="326" width="34" height="24" rx="4"/>
      <rect x="540" y="326" width="34" height="24" rx="4"/>
      <rect x="620" y="326" width="34" height="24" rx="4"/>
      <rect x="700" y="326" width="34" height="24" rx="4"/>
      <rect x="780" y="326" width="34" height="24" rx="4"/>
      <rect x="860" y="326" width="34" height="24" rx="4"/>
      <rect x="940" y="326" width="34" height="24" rx="4"/>
      <rect x="1020" y="326" width="34" height="24" rx="4"/>
      <rect x="1100" y="326" width="34" height="24" rx="4"/>
      <rect x="1180" y="326" width="34" height="24" rx="4"/>
      <rect x="1260" y="326" width="34" height="24" rx="4"/>
      <rect x="1340" y="326" width="34" height="24" rx="4"/>
      <rect x="-180" y="372" width="34" height="24" rx="4"/>
      <rect x="-100" y="372" width="34" height="24" rx="4"/>
      <rect x="-20" y="372" width="34" height="24" rx="4"/>
      <rect x="60" y="372" width="34" height="24" rx="4"/>
      <rect x="140" y="372" width="34" height="24" rx="4"/>
      <rect x="220" y="372" width="34" height="24" rx="4"/>
      <rect x="300" y="372" width="34" height="24" rx="4"/>
      <rect x="380" y="372" width="34" height="24" rx="4"/>
      <rect x="460" y="372" width="34" height="24" rx="4"/>
      <rect x="540" y="372" width="34" height="24" rx="4"/>
      <rect x="620" y="372" width="34" height="24" rx="4"/>
      <rect x="700" y="372" width="34" height="24" rx="4"/>
      <rect x="780" y="372" width="34" height="24" rx="4"/>
      <rect x="860" y="372" width="34" height="24" rx="4"/>
      <rect x="940" y="372" width="34" height="24" rx="4"/>
      <rect x="1020" y="372" width="34" height="24" rx="4"/>
      <rect x="1100" y="372" width="34" height="24" rx="4"/>
      <rect x="1180" y="372" width="34" height="24" rx="4"/>
      <rect x="1260" y="372" width="34" height="24" rx="4"/>
      <rect x="1340" y="372" width="34" height="24" rx="4"/>
    </g>
  </g>
</svg>
